# xmcd CD database file
#
# Track frame offsets:
#	150
#	25927
#	58748
#	95900
#	133431
#	158041
#	186358
#
# Disc length: 2859 seconds
#
# Revision: 0
# Processed by: cddbd v1.5.2PL0 Copyright (c) Steve Scherf et al.
# Submitted via: CDex 1.50
#
DISCID=660b2907
DTITLE=Volker Heuken Sextett - Portugal Suite
DYEAR=2016
DGENRE=Jazz
TTITLE0=Sao Bento
TTITLE1=Lady Of Light
TTITLE2=Lisboa Part I
TTITLE3=Lisboa Part II
TTITLE4=The Golden Chapel
TTITLE5=Big Walls
TTITLE6=Boa Vista
EXTD=YEAR: 2016
EXTT0=
EXTT1=
EXTT2=
EXTT3=
EXTT4=
EXTT5=
EXTT6=
PLAYORDER=
